<svg xmlns="http://www.w3.org/2000/svg" viewBox="0 0 291.3 110" fill="none">
  <g transform="translate(0 31.95)">
    <g transform="matrix(2.3057413 0 0 2.3057413 5 -129.97052)">
      <g fill="#23398C">
        <path d="m8.1 57.87a2.45 2.45 0 0 1 0 1.31 1.53 1.53 0 0 1-1.71 1.18 1.56 1.56 0 0 1-1.75-1.6v-1.7H0v1.36c0 3.92 3.06 5.1 6.34 5.1 3.28 0 5.74-1.08 6.16-4a8.93 8.93 0 0 0 0-2.88C11.76 52.95 5.14 51.86 4.64 49.8a2.42 2.42 0 0 1 0-.93 1.42 1.42 0 0 1 1.59-1.17 1.48 1.48 0 0 1 1.62 1.58v1.09h4.35v-1.26c0-3.82-3.41-4.43-5.88-4.43-3.1 0-5.63 1-6.1 3.92A6.09 6.09 0 0 0 .25 51c.75 3.6 7 4.64 7.85 6.91" />
        <path d="m64.78 57.84a2.25 2.25 0 0 1 0 1.28 1.49 1.49 0 0 1-1.69 1.17 1.54 1.54 0 0 1-1.73-1.57V57h-4.59v1.33c0 3.88 3 5.06 6.28 5.06 3.28 0 5.68-1.07 6.1-4a8.53 8.53 0 0 0 0-2.85C68.43 52.89 61.88 51.8 61.38 49.76a2 2 0 0 1 0-.91 1.41 1.41 0 0 1 1.57-1.17 1.47 1.47 0 0 1 1.6 1.58v1.07h4.3v-1.16c0-3.79-3.37-4.39-5.82-4.39-3 0-5.57 1-6 3.87A6.44 6.44 0 0 0 57 51c.75 3.56 6.89 4.58 7.77 6.84" />
        <path d="M94.42 48.03 94.67 62.64 90.37 62.64 90.37 45.24 96.85 45.24 100.96 59.4 100.72 45.24 105.03 45.24 105.03 62.64 98.83 62.64z" />
        <path d="M20.15 62.82 15.44 62.82 18.68 45.24 26.43 45.24 29.64 62.82 24.95 62.82 22.59 46.55z" />
        <path d="M40.59 62.82 37.6 46.55 37.48 62.82 33.12 62.82 33.51 45.24 40.62 45.24 42.82 58.99 45.02 45.24 52.12 45.24 52.5 62.82 48.14 62.82 48.03 46.55 45.02 62.82z" />
        <path d="m79.42 60.2a1.59 1.59 0 0 0 1.68-1.27 4.83 4.83 0 0 0 0-.67v-13h4.41v12.6c0 .33 0 1 0 1.16-.3 3.28-2.87 4.34-6.08 4.34-3.21 0-5.79-1.07-6.09-4.36 0-.17-.06-.83 0-1.16V45.25h4.42v13a3.66 3.66 0 0 0 0 .67 1.57 1.57 0 0 0 1.67 1.27" />
        <path d="m115.79 60a1.64 1.64 0 0 0 1.79-1.28 4.73 4.73 0 0 0 0-.67v-2.53h-1.8V53H122v4.72c0 .32 0 .56-.06 1.15-.29 3.2-3 4.34-6.13 4.34-3.13 0-5.81-1.21-6.14-4.38a11.2 11.2 0 0 1 0-1.15v-7.41c0-.31 0-.86.07-1.16.39-3.29 3-4.34 6.12-4.34 3.12 0 5.79 1 6.13 4.34 0 .57 0 1.16 0 1.16v.59h-4.39v-1s0-.42-.06-.68a1.82 1.82 0 0 0-3.47 0A3.63 3.63 0 0 0 114 50v8a3.6 3.6 0 0 0 0 .67 1.64 1.64 0 0 0 1.79 1.33" />
      </g>
      <g fill="#231F20">
        <path d="M.93 87.68V72.31h5.21c2.22 0 3 .73 3.57 1.58a4 4 0 0 1 .64 2c0 1.91-.68 3.19-2.74 3.64v.11a3.31 3.31 0 0 1 3.28 3.68c0 3.94-3 4.32-4.81 4.32Zm2-8.9h3A2.3902563 2.3902563 0 1 0 5.86 74H3ZM3 86H5.86A2.65 2.65 0 0 0 8.8 83.36C8.8 80.91 7.23 80.49 5.14 80.49H3Z" />
        <path d="M14.54 72.31H16.58V87.68H14.54z" />
        <path d="M20.37 82.06V77c0-3.07 1.64-5 5-5s5 2 5 5v5c0 4.26-1.65 5.94-5 5.94s-5-1.68-5-5.94m8 .09V77c0-3.21-2.3-3.32-3-3.32s-2.94.11-2.94 3.32v5.2c0 3.36 1 4.21 2.94 4.21s3-.85 3-4.21" />
        <path d="M36.02 85.98H41.89V87.68H33.98V72.31H36.02Z" />
        <path d="M43.76 82.06V77c0-3.07 1.64-5 5-5s5 2 5 5v5c0 4.26-1.64 5.94-5 5.94s-5-1.68-5-5.94m8 .09V77c0-3.21-2.31-3.32-3-3.32s-2.95.11-2.95 3.32v5.2c0 3.36 1 4.21 2.95 4.21s3-.85 3-4.21" />
        <path d="m65 76.42c0-1.81-.77-2.79-2.83-2.79-.65 0-3 .11-3 3.32v5.2c0 3.36 1 4.21 3 4.21a5.21 5.21 0 0 0 2.86-.68v-4.6h-3v-1.7h5v7.47A10.22 10.22 0 0 1 62.2 88c-3.39 0-5-1.68-5-5.94V77c0-3.07 1.64-5 5-5 3.36 0 5.1 1.22 5 4.43Z" />
        <path d="M71.17 72.31H73.21V87.68H71.17z" />
        <path d="m84.12 76.55a3.5 3.5 0 0 0-.47-2.24 2.71 2.71 0 0 0-1.79-.66 2.52 2.52 0 0 0-2.42 1.19C79.37 75 79 75.4 79 78v4.11c0 3.76 1.28 4.21 2.86 4.21.62 0 2.5-.21 2.52-3.21h2.11C86.56 88 83 88 82 88c-2 0-5.06-.13-5.06-6.09v-4.34c0-4.34 2-5.58 5.14-5.58s4.39 1.58 4.19 4.56Z" />
        <path d="m91 83.1v.45a2.48 2.48 0 0 0 2.68 2.75c1.62 0 2.86-.66 2.86-2.49 0-3.41-7.18-3-7.18-7.65 0-2.72 2-4.17 4.69-4.17 2.93 0 4.57 1.36 4.44 4.49h-2.18c0-1.68-.53-2.79-2.46-2.79A2.2 2.2 0 0 0 91.39 76c0 3.39 7.18 2.9 7.18 7.77 0 3.24-2.33 4.28-5 4.28-4.73 0-4.73-3.43-4.68-4.9Z" />
      </g>
    </g>
  </g>
</svg>
