<svg xmlns="http://www.w3.org/2000/svg" viewBox="0 0 28.452518 15.028476" fill="none">
  <g transform="translate(-17.523744 -115.616715)">
    <g fill="#E31837">
      <path d="m20.156528 125.50815c-.472722-.22119-.860778-.3997-.860778-.76059 0-.27622.221192-.47695.657225-.47695.160514 0 .291747.019.427567.0437.07091.0123.146403.0226.208844.0226.381353 0 .596548-.22719.739775-.65864l.05891-.17603c-.06103-.0247-.683683-.29845-1.495425-.29845-1.291872 0-1.973791.82867-1.973439 1.68804 0 .43356.13582.74789.348545.99554.273755.31785.663928.52599 1.029053.70449.532341.26106 1.012472.45403 1.012472.84103.000353.3436-.354542.53869-.829028.53869-.650169 0-1.218142-.37113-1.290461-.41593l-.533753 1.00013c.09455.054.782108.49001 1.913467.49001 1.205441-.00071 2.11843-.6918 2.11843-1.75543 0-1.05798-.845961-1.45027-1.531408-1.78223" />
      <path d="m24.871861 126.00197 2.186517-2.68111h-1.557867l-1.744133 2.31387h-.02611v-2.31387h-1.284464l.000706 5.67972h.0762c.555272 0 1.216025-.25717 1.216025-1.18427v-1.30422h.02611l1.778 2.41758h1.63442z" />
      <path d="m27.131227 117.23664c-.452261.0854-1.122539.49601-1.120069 1.22167.0014.65899.540455 1.05869.542219 1.92193.0025.64982-.3556 1.08762-.74295 1.32997.156633-.0138.328083-.0229.516467-.0233.395816-.001.634294.0367.649111.0392l2.028472-2.4892c-.563386-.84349-1.221317-1.49789-1.87325-2.00025" />
      <path d="m28.835143 123.95875c.255764-.39758.287867-1.03117.309386-1.67605.02434-.60219.149578-1.05516.95497-1.05798.178152-.00035.348191.024.655813.0233 1.179689-.005 1.949803-.41134 2.428875-.67804-.978605-.62407-2.407355-1.26154-4.179711-1.33315-.115711.32597-1.013883 2.82363-1.081969 3.02542.01023.012.167569.18803.364067.53199.289983.47237.445558.87242.548569 1.16452" />
    </g>
    <g fill="#F58025">
      <path d="m24.550904 121.91874c-.102658.00035-.153811-.0677-.167569-.18591-.01305-.11713-.5207-4.75862-.595842-5.461-.01094-.10266-.03634-.29105-.03669-.35807-.000353-.10795.0702-.1644.153106-.16475.240241-.001 1.550458.30586 2.940402 1.28058-.400755.11254-1.125008.52917-1.121833 1.39171.0028.76377.549275 1.18392.552097 1.9498.0046 1.24566-1.427339 1.54693-1.723672 1.54764" />
      <path d="m28.95163 124.29001c.02187.0579.04233.10654.06315.14041.0321.054.07338.0787.124884.0787.0321-.00035.07161-.0113.115711-.031.106891-.0494 4.342694-2.02106 4.981575-2.31563.09243-.0444.268463-.12312.325966-.15699.05997-.0342.08749-.084.08749-.13476-.000353-.0286-.0085-.0572-.02469-.0833-.08008-.12911-.489656-.56409-1.17475-1.03928-.543984.29951-1.393473.76271-2.657122.76765-.309739.0007-.379589-.0201-.591256-.0194-.616656.002-.770819.266-.793397.80681-.0035.1023-.0056.23953-.01164.39052-.0194.48331-.07655 1.15006-.445911 1.59632" />
      <path d="m35.569424 129.07745c-.470253 1.27106-1.075972 1.43545-1.595614 1.43545-.367242 0-.637117-.13123-.665339-.14569l.196145-.59479c.01552.008.214136.11501.434975.11501.41275 0 .671689-.22931.900641-.94756 0 0-1.402997-3.054-1.419577-3.0921.02575-.008.193675-.0593.385233-.0593.454025 0 .554214.28364.670983.56692.09878.23777.74542 1.79705.74542 1.79705h.02152l.748947-2.3047h.776817z" />
      <path d="m45.843971 128.92466-1.08585-1.57762 1.063272-1.54411h-.916516l-.740128 1.13206c-.19932-.31291-.38735-.60819-.445559-.69991-.148166-.22754-.281516-.4572-.61983-.45049-.0448.001-.09207.005-.142875.0155-.188736.0346-.344311.11571-.367947.1277.01199.0191.5207.74013 1.007533 1.44145l-1.069622 1.5554h.915458l.743656-1.13594.743655 1.13594z" />
      <path d="m37.400376 126.86169v2.06798h.776464v-2.14947c.04233-.0388.318558-.30233.624417-.30233.399344 0 .606425.28928.606425.66604v1.78576h.775758v-1.98014c0-.9398-.723547-1.14794-1.127125-1.14794-.485422 0-.830792.30586-.93345.40746-.03316-.12594-.180975-.33902-.519995-.33902-.119591 0-.275872.0353-.290336.0392.02364.11677.08784.3937.08784.9525" />
      <path d="m41.914697 124.91241c0 .25647-.213783.46426-.478719.46426-.264584 0-.478367-.20779-.478367-.46426 0-.25753.213783-.46637.478367-.46637.264936 0 .478719.20884.478719.46637" />
      <path d="m41.820581 128.92526h-.76977v-3.0794h.76977z" />
      <path d="m30.94232 126.20146c.05433-.0455.450144-.4131 1.000831-.4131.602544 0 1.047044.31432 1.047044 1.0802v2.06128h-.804333v-1.84079c0-.33902-.186973-.60184-.540809-.60184-.33655 0-.621947.26564-.702733.33232v2.11031h-.798689v-4.70147h.169333c.382764 0 .629356.27835.629356.64912z" />
    </g>
  </g>
</svg>
